<svg xmlns="http://www.w3.org/2000/svg" width="800" height="200" fill="none" viewBox="0 0 800 200"><defs><linearGradient id="grad1" x1="0%" x2="100%" y1="0%" y2="100%"><stop offset="0%" style="stop-color:#1e3a8a;stop-opacity:1"/><stop offset="50%" style="stop-color:#3b82f6;stop-opacity:1"/><stop offset="100%" style="stop-color:#06b6d4;stop-opacity:1"/></linearGradient><pattern id="grid" width="40" height="40" patternUnits="userSpaceOnUse"><path fill="none" stroke="rgba(255,255,255,0.1)" stroke-width="1" d="M 40 0 L 0 0 0 40"/></pattern></defs><rect width="800" height="200" fill="url(#grad1)"/><rect width="800" height="200" fill="url(#grid)"/><rect width="120" height="80" x="50" y="40" fill="rgba(255,255,255,0.1)" rx="8"/><rect width="100" height="8" x="60" y="50" fill="rgba(255,255,255,0.6)" rx="4"/><rect width="80" height="6" x="60" y="65" fill="rgba(255,255,255,0.4)" rx="3"/><rect width="90" height="6" x="60" y="78" fill="rgba(255,255,255,0.4)" rx="3"/><rect width="70" height="6" x="60" y="91" fill="rgba(255,255,255,0.4)" rx="3"/><rect width="85" height="6" x="60" y="104" fill="rgba(255,255,255,0.4)" rx="3"/><rect width="140" height="100" x="200" y="60" fill="rgba(255,255,255,0.08)" rx="8"/><rect width="120" height="8" x="210" y="70" fill="rgba(255,255,255,0.5)" rx="4"/><rect width="100" height="6" x="210" y="85" fill="rgba(255,255,255,0.3)" rx="3"/><rect width="110" height="6" x="210" y="98" fill="rgba(255,255,255,0.3)" rx="3"/><rect width="90" height="6" x="210" y="111" fill="rgba(255,255,255,0.3)" rx="3"/><rect width="105" height="6" x="210" y="124" fill="rgba(255,255,255,0.3)" rx="3"/><rect width="80" height="6" x="210" y="137" fill="rgba(255,255,255,0.3)" rx="3"/><circle cx="400" cy="100" r="60" fill="rgba(255,255,255,0.1)" stroke="rgba(255,255,255,0.3)" stroke-width="2"/><circle cx="400" cy="100" r="40" fill="rgba(255,255,255,0.05)" stroke="rgba(255,255,255,0.2)" stroke-width="1"/><circle cx="400" cy="100" r="20" fill="rgba(255,255,255,0.1)"/><line x1="170" x2="340" y1="80" y2="100" stroke="rgba(255,255,255,0.3)" stroke-width="2"/><line x1="460" x2="550" y1="100" y2="80" stroke="rgba(255,255,255,0.3)" stroke-width="2"/><line x1="460" x2="550" y1="120" y2="140" stroke="rgba(255,255,255,0.3)" stroke-width="2"/><rect width="130" height="90" x="570" y="50" fill="rgba(255,255,255,0.1)" rx="8"/><rect width="110" height="8" x="580" y="60" fill="rgba(255,255,255,0.6)" rx="4"/><rect width="90" height="6" x="580" y="75" fill="rgba(255,255,255,0.4)" rx="3"/><rect width="100" height="6" x="580" y="88" fill="rgba(255,255,255,0.4)" rx="3"/><rect width="80" height="6" x="580" y="101" fill="rgba(255,255,255,0.4)" rx="3"/><rect width="95" height="6" x="580" y="114" fill="rgba(255,255,255,0.4)" rx="3"/><rect width="130" height="70" x="570" y="120" fill="rgba(255,255,255,0.08)" rx="8"/><rect width="110" height="8" x="580" y="130" fill="rgba(255,255,255,0.5)" rx="4"/><rect width="90" height="6" x="580" y="145" fill="rgba(255,255,255,0.3)" rx="3"/><rect width="100" height="6" x="580" y="158" fill="rgba(255,255,255,0.3)" rx="3"/><rect width="80" height="6" x="580" y="171" fill="rgba(255,255,255,0.3)" rx="3"/><circle cx="100" cy="30" r="3" fill="rgba(255,255,255,0.6)"/><circle cx="300" cy="25" r="2" fill="rgba(255,255,255,0.4)"/><circle cx="500" cy="35" r="4" fill="rgba(255,255,255,0.5)"/><circle cx="650" cy="20" r="2" fill="rgba(255,255,255,0.3)"/><circle cx="750" cy="40" r="3" fill="rgba(255,255,255,0.4)"/><circle cx="80" cy="180" r="2" fill="rgba(255,255,255,0.4)"/><circle cx="250" cy="175" r="3" fill="rgba(255,255,255,0.5)"/><circle cx="450" cy="185" r="2" fill="rgba(255,255,255,0.3)"/><circle cx="600" cy="170" r="4" fill="rgba(255,255,255,0.6)"/><circle cx="720" cy="180" r="2" fill="rgba(255,255,255,0.4)"/></svg>