<svg width="800" height="200" viewBox="0 0 800 200" fill="none" xmlns="http://www.w3.org/2000/svg">
  <defs>
    <linearGradient id="grad1" x1="0%" y1="0%" x2="100%" y2="100%">
      <stop offset="0%" style="stop-color:#1e3a8a;stop-opacity:1" />
      <stop offset="50%" style="stop-color:#3b82f6;stop-opacity:1" />
      <stop offset="100%" style="stop-color:#06b6d4;stop-opacity:1" />
    </linearGradient>
    <pattern id="grid" width="40" height="40" patternUnits="userSpaceOnUse">
      <path d="M 40 0 L 0 0 0 40" fill="none" stroke="rgba(255,255,255,0.1)" stroke-width="1"/>
    </pattern>
  </defs>
  
  <!-- Background -->
  <rect width="800" height="200" fill="url(#grad1)"/>
  <rect width="800" height="200" fill="url(#grid)"/>
  
  <!-- Code blocks -->
  <rect x="50" y="40" width="120" height="80" rx="8" fill="rgba(255,255,255,0.1)"/>
  <rect x="60" y="50" width="100" height="8" rx="4" fill="rgba(255,255,255,0.6)"/>
  <rect x="60" y="65" width="80" height="6" rx="3" fill="rgba(255,255,255,0.4)"/>
  <rect x="60" y="78" width="90" height="6" rx="3" fill="rgba(255,255,255,0.4)"/>
  <rect x="60" y="91" width="70" height="6" rx="3" fill="rgba(255,255,255,0.4)"/>
  <rect x="60" y="104" width="85" height="6" rx="3" fill="rgba(255,255,255,0.4)"/>
  
  <rect x="200" y="60" width="140" height="100" rx="8" fill="rgba(255,255,255,0.08)"/>
  <rect x="210" y="70" width="120" height="8" rx="4" fill="rgba(255,255,255,0.5)"/>
  <rect x="210" y="85" width="100" height="6" rx="3" fill="rgba(255,255,255,0.3)"/>
  <rect x="210" y="98" width="110" height="6" rx="3" fill="rgba(255,255,255,0.3)"/>
  <rect x="210" y="111" width="90" height="6" rx="3" fill="rgba(255,255,255,0.3)"/>
  <rect x="210" y="124" width="105" height="6" rx="3" fill="rgba(255,255,255,0.3)"/>
  <rect x="210" y="137" width="80" height="6" rx="3" fill="rgba(255,255,255,0.3)"/>
  
  <!-- API endpoints visualization -->
  <circle cx="400" cy="100" r="60" fill="rgba(255,255,255,0.1)" stroke="rgba(255,255,255,0.3)" stroke-width="2"/>
  <circle cx="400" cy="100" r="40" fill="rgba(255,255,255,0.05)" stroke="rgba(255,255,255,0.2)" stroke-width="1"/>
  <circle cx="400" cy="100" r="20" fill="rgba(255,255,255,0.1)"/>
  
  <!-- Connection lines -->
  <line x1="170" y1="80" x2="340" y2="100" stroke="rgba(255,255,255,0.3)" stroke-width="2"/>
  <line x1="460" y1="100" x2="550" y2="80" stroke="rgba(255,255,255,0.3)" stroke-width="2"/>
  <line x1="460" y1="120" x2="550" y2="140" stroke="rgba(255,255,255,0.3)" stroke-width="2"/>
  
  <!-- More code blocks -->
  <rect x="570" y="50" width="130" height="90" rx="8" fill="rgba(255,255,255,0.1)"/>
  <rect x="580" y="60" width="110" height="8" rx="4" fill="rgba(255,255,255,0.6)"/>
  <rect x="580" y="75" width="90" height="6" rx="3" fill="rgba(255,255,255,0.4)"/>
  <rect x="580" y="88" width="100" height="6" rx="3" fill="rgba(255,255,255,0.4)"/>
  <rect x="580" y="101" width="80" height="6" rx="3" fill="rgba(255,255,255,0.4)"/>
  <rect x="580" y="114" width="95" height="6" rx="3" fill="rgba(255,255,255,0.4)"/>
  
  <rect x="570" y="120" width="130" height="70" rx="8" fill="rgba(255,255,255,0.08)"/>
  <rect x="580" y="130" width="110" height="8" rx="4" fill="rgba(255,255,255,0.5)"/>
  <rect x="580" y="145" width="90" height="6" rx="3" fill="rgba(255,255,255,0.3)"/>
  <rect x="580" y="158" width="100" height="6" rx="3" fill="rgba(255,255,255,0.3)"/>
  <rect x="580" y="171" width="80" height="6" rx="3" fill="rgba(255,255,255,0.3)"/>
  
  <!-- Floating elements -->
  <circle cx="100" cy="30" r="3" fill="rgba(255,255,255,0.6)"/>
  <circle cx="300" cy="25" r="2" fill="rgba(255,255,255,0.4)"/>
  <circle cx="500" cy="35" r="4" fill="rgba(255,255,255,0.5)"/>
  <circle cx="650" cy="20" r="2" fill="rgba(255,255,255,0.3)"/>
  <circle cx="750" cy="40" r="3" fill="rgba(255,255,255,0.4)"/>
  
  <circle cx="80" cy="180" r="2" fill="rgba(255,255,255,0.4)"/>
  <circle cx="250" cy="175" r="3" fill="rgba(255,255,255,0.5)"/>
  <circle cx="450" cy="185" r="2" fill="rgba(255,255,255,0.3)"/>
  <circle cx="600" cy="170" r="4" fill="rgba(255,255,255,0.6)"/>
  <circle cx="720" cy="180" r="2" fill="rgba(255,255,255,0.4)"/>
</svg>
