<svg width="183" height="34" viewBox="0 0 183 34" fill="none" xmlns="http://www.w3.org/2000/svg">
<g clip-path="url(#clip0_2071_211)">
<path d="M183 21.1056H176.858V27.2474H183V21.1056Z" fill="white"/>
<path d="M28.9709 6.14185H35.1127V27.2475H29.0121L28.9709 6.14185Z" fill="white"/>
<path d="M42.9229 26.67C41.4802 26.0925 40.3676 25.2823 39.5838 24.2385C38.8001 23.1946 38.3406 21.9857 38.2031 20.6107H44.1386C44.2486 21.1057 44.4537 21.5526 44.7574 21.9502C45.0599 22.3489 45.4713 22.6652 45.9938 22.8978C46.5152 23.1316 47.1889 23.2484 48.0139 23.2484C49.0303 23.2484 49.8485 23.0491 50.4661 22.6514C51.0849 22.2538 51.3931 21.7244 51.3931 21.0644C51.3931 20.5981 51.1731 20.213 50.7331 19.9105C50.2931 19.608 49.6468 19.3479 48.7954 19.1268L44.7975 18.0554C42.7086 17.5054 41.1697 16.7777 40.1808 15.8702C39.1919 14.9638 38.6969 13.7137 38.6969 12.1198C38.6969 9.97705 39.5758 8.39003 41.3347 7.35876C43.0925 6.32863 45.2776 5.81299 47.8879 5.81299C49.8107 5.81299 51.4458 6.10862 52.7933 6.69874C54.1397 7.29001 55.1561 8.09326 55.8436 9.10964C56.53 10.1272 56.9563 11.3085 57.1213 12.6549H51.1444C51.0894 11.9411 50.7732 11.3292 50.1968 10.8204C49.6193 10.3128 48.8092 10.0573 47.7653 10.0573C46.8853 10.0573 46.1508 10.2291 45.5606 10.5729C44.9694 10.9167 44.6737 11.391 44.6737 11.9949C44.6737 12.4349 44.8594 12.7993 45.2306 13.0869C45.6019 13.3757 46.1026 13.6163 46.7352 13.8088L50.9806 14.8802C53.2608 15.4577 54.9097 16.2472 55.9273 17.2498C56.9436 18.2536 57.4524 19.4831 57.4524 20.9395C57.4524 22.1484 57.0812 23.2553 56.3398 24.2579C55.5973 25.2617 54.5121 26.0581 53.0832 26.6482C51.6543 27.2395 49.9642 27.5351 48.0128 27.5351C46.0614 27.5351 44.3644 27.2463 42.9217 26.67H42.9229Z" fill="white"/>
<path d="M68.0241 12.3879C67.1304 13.3092 66.6846 14.6899 66.6846 16.5302V27.2475H60.584V6.14296H66.6846V9.64701H66.9321C67.206 8.74063 67.6666 7.98436 68.3129 7.38049C68.958 6.77662 69.7968 6.35724 70.8269 6.12348C71.857 5.89087 73.0178 5.8966 74.3103 6.14411V11.0083H71.3838C70.0374 11.0083 68.9168 11.4689 68.0241 12.3891V12.3879Z" fill="white"/>
<path d="M83.8313 21.7451C84.4352 22.5014 85.3014 22.8784 86.4278 22.8784C87.6917 22.8784 88.6187 22.4326 89.21 21.5389C89.8012 20.6462 90.0969 19.5267 90.0969 18.1792V6.14307H96.1562V27.2476H90.0969V24.2798H89.8494C89.1619 25.3798 88.3517 26.2037 87.4179 26.7526C86.4828 27.3026 85.3564 27.5764 84.0376 27.5764C82.7187 27.5764 81.4204 27.267 80.3078 26.6494C79.1951 26.0307 78.3357 25.1312 77.7319 23.9498C77.1269 22.7684 76.8255 21.3395 76.8255 19.6631V6.14307H82.9261V18.5917C82.9261 19.9381 83.2286 20.99 83.8324 21.7451H83.8313Z" fill="white"/>
<path d="M106.666 6.14295V34.0069H100.565V6.14295H106.666ZM117.383 7.11235C118.647 7.97748 119.643 9.22188 120.372 10.8433C121.099 12.4647 121.464 14.3336 121.464 16.4488C121.464 18.5641 121.099 20.488 120.372 22.1369C119.643 23.7858 118.64 25.0772 117.363 26.0111C116.085 26.9461 114.649 27.4125 113.055 27.4125C111.654 27.4125 110.423 27.0973 109.366 26.4648C108.308 25.8335 107.49 24.9947 106.914 23.9508H106.666C106.584 23.7033 106.515 23.497 106.46 23.332C106.13 22.3157 105.869 21.2706 105.677 20.1992C105.485 19.1279 105.388 17.9602 105.388 16.6952V15.9951C105.416 14.7312 105.547 13.5361 105.78 12.4085C106.013 11.2821 106.309 10.2383 106.666 9.27574H106.914C107.545 8.23186 108.37 7.39423 109.386 6.76171C110.403 6.13034 111.625 5.81409 113.054 5.81409C114.676 5.81409 116.118 6.24722 117.382 7.11235H117.383ZM107.161 19.6424C107.464 20.5636 107.93 21.3119 108.562 21.8894C109.194 22.4669 109.991 22.7545 110.953 22.7545C111.859 22.7545 112.643 22.4726 113.302 21.9089C113.961 21.3463 114.442 20.5969 114.744 19.663C115.046 18.7291 115.198 17.6703 115.198 16.4889C115.198 14.7037 114.841 13.2473 114.127 12.1198C113.412 10.9934 112.354 10.4296 110.953 10.4296C109.99 10.4296 109.194 10.7253 108.562 11.3154C107.93 11.9066 107.462 12.6686 107.161 13.6025C106.859 14.5375 106.707 15.5402 106.707 16.6116C106.707 17.6829 106.857 18.7211 107.161 19.6412V19.6424Z" fill="white"/>
<path d="M123.195 6.14304H136.921V10.7597H123.195V6.14304ZM129.007 26.5669C128.183 26.1131 127.53 25.4818 127.049 24.6705C126.567 23.8604 126.327 22.9185 126.327 21.8471V0.0012207H132.427V22.4659H136.92V27.2475H131.727C130.738 27.2475 129.831 27.0207 129.007 26.568V26.5669Z" fill="white"/>
<path d="M144.257 26.2585C142.691 25.3796 141.454 24.1146 140.548 22.4669C139.642 20.818 139.188 18.854 139.188 16.5725C139.188 14.2911 139.642 12.4234 140.548 10.802C141.454 9.18058 142.692 7.9442 144.257 7.09282C145.824 6.24145 147.596 5.81519 149.574 5.81519C151.552 5.81519 153.243 6.2277 154.808 7.05157C156.375 7.87545 157.604 9.09923 158.498 10.7195C159.391 12.3409 159.838 14.2923 159.838 16.5725C159.838 18.8528 159.398 20.8248 158.519 22.4875C157.639 24.1501 156.423 25.414 154.87 26.2791C153.318 27.1443 151.552 27.5774 149.574 27.5774C147.596 27.5774 145.824 27.1385 144.257 26.2585ZM145.865 19.8898C146.195 20.8661 146.675 21.6212 147.308 22.1563C147.94 22.6926 148.681 22.9607 149.534 22.9607C150.825 22.9607 151.835 22.3775 152.564 21.2087C153.291 20.0411 153.656 18.4953 153.656 16.5714C153.656 14.6475 153.298 13.253 152.584 12.1403C151.869 11.0277 150.853 10.4708 149.534 10.4708C148.215 10.4708 147.191 11.0277 146.463 12.1403C145.734 13.253 145.371 14.7311 145.371 16.5714C145.371 17.8078 145.536 18.9147 145.866 19.8898H145.865Z" fill="white"/>
<path d="M170.574 12.3879C169.681 13.3092 169.235 14.6899 169.235 16.5302V27.2475H163.134V6.14296H169.235V9.64701H169.482C169.756 8.74063 170.217 7.98436 170.863 7.38049C171.508 6.77662 172.347 6.35724 173.377 6.12348C174.407 5.89087 175.568 5.8966 176.859 6.14411V11.0083H173.933C172.586 11.0083 171.466 11.4689 170.573 12.3891L170.574 12.3879Z" fill="white"/>
<path d="M24.5616 6.14185H18.4209V21.108H24.5616V6.14185Z" fill="white"/>
<path d="M6.14182 6.14182V21.1091H18.4232V27.2509H0V0H18.4232V6.14182H6.14182Z" fill="white"/>
</g>
<defs>
<clipPath id="clip0_2071_211">
<rect width="183" height="34.0069" fill="white"/>
</clipPath>
</defs>
</svg>
