<svg xmlns="http://www.w3.org/2000/svg" width="220" height="60" fill="none" viewBox="0 0 220 60"><rect width="220" height="60" fill="none" rx="16"/><circle cx="30" cy="30" r="22" fill="#25D366"/><path fill="#fff" d="M20.8 42.3l2.1-7.3a12.1 12.1 0 1 1 4.5 4.2l-6.6 3.1Z"/><path fill="#25D366" d="M24.8 34.4c-1.1-1.8-1.6-3.6-1.6-5.4a8.8 8.8 0 1 1 4.7 7.8l-.7-.4-3.1 1.4.9-3.1-.2-.3Z"/><path fill="#fff" d="M28.2 24.2c-.2-.5-.4-.5-.8-.5h-.7c-.3 0-.7.1-1 .5-.4.4-1.3 1.3-1.3 3.1s1.3 3.6 1.5 3.9c.2.2 2.6 4.1 6.4 5.5 3.2 1.2 3.9.9 4.6.8.7-.1 2.2-.9 2.5-1.8.3-.9.3-1.6.2-1.8-.1-.2-.4-.3-.8-.5l-2.6-1.3c-.4-.1-.7-.2-.9.2-.3.4-1 1.3-1.2 1.5-.2.3-.5.3-.9.1-.4-.2-1.7-.6-3.2-2-1.2-1-2-2.3-2.2-2.7-.2-.4 0-.6.2-.8l.6-.7c.2-.2.3-.4.4-.7.1-.3.1-.5 0-.7l-1.2-2.9Z"/><text x="64" y="27" fill="#fff" font-family="Inter, Arial, sans-serif" font-size="18" font-weight="800">WhatsApp</text><text x="64" y="45" fill="#CFFFE2" font-family="Inter, Arial, sans-serif" font-size="13" font-weight="700">Commerce Hub</text></svg>